<svg data-name="Layer 1" viewBox="0 0 64 64" xmlns="http://www.w3.org/2000/svg"><path d="M33.06 46.94a31.45 31.45 0 0 1-16.17-16.39l4.21-2.84a26.28 26.28 0 0 1-1.77-9.44H9.27a36.46 36.46 0 0 0 36.46 36.46V44.67A26.29 26.29 0 0 1 36 42.78ZM30.73 21.27a12 12 0 0 1 12 12" fill="none" stroke="#213e8c" stroke-linecap="round" stroke-linejoin="round" stroke-width="2px" class="stroke-078cd6"></path><path d="M30.73 15.27a18 18 0 0 1 18 18" fill="none" stroke="#213e8c" stroke-linecap="round" stroke-linejoin="round" stroke-width="2px" class="stroke-078cd6"></path><path d="M30.73 9.27a24 24 0 0 1 24 24" fill="none" stroke="#213e8c" stroke-linecap="round" stroke-linejoin="round" stroke-width="2px" class="stroke-078cd6"></path></svg>