<svg viewBox="0 0 512 512" xml:space="preserve" xmlns="http://www.w3.org/2000/svg"><g fill="#213e8c" class="fill-37404d"><path d="M256.108 106.02c-91.39 0-162.63 57.202-250 149.943 75.277 79.298 138.444 150.053 250 150.053s193.547-89.572 250-148.377c-57.788-68.888-139.786-151.619-250-151.619zm0 283.329c-99.032 0-158.813-61.422-227.018-133.37 81.152-84.619 145.679-133.292 227.018-133.292 96.297 0 171.557 69.442 227.555 134.285-55.07 57.421-129.63 132.377-227.555 132.377z"></path><path d="M256.108 156.027c-55.143 0-100 44.857-100 99.992s44.857 99.992 100 99.992 100-44.857 100-99.992-44.856-99.992-100-99.992zm0 183.318c-45.948 0-83.333-37.378-83.333-83.325s37.386-83.326 83.333-83.326 83.333 37.378 83.333 83.326c.001 45.947-37.385 83.325-83.333 83.325z"></path><path d="M256.108 197.687c-32.162 0-58.333 26.172-58.333 58.333s26.172 58.333 58.333 58.333c32.162 0 58.333-26.173 58.333-58.333.001-32.162-26.171-58.333-58.333-58.333zm0 100c-22.973 0-41.667-18.693-41.667-41.667s18.693-41.667 41.667-41.667 41.667 18.692 41.667 41.667c0 22.973-18.693 41.667-41.667 41.667z"></path></g></svg>